<svg width="16" height="17" viewBox="0 0 16 17" fill="none" xmlns="http://www.w3.org/2000/svg">
<path fill-rule="evenodd" clip-rule="evenodd" d="M7.99998 1.83333C8.36817 1.83333 8.66665 2.13181 8.66665 2.49999V8.89052L10.8619 6.69526C11.1223 6.43491 11.5444 6.43491 11.8047 6.69526C12.0651 6.95561 12.0651 7.37772 11.8047 7.63807L8.47138 10.9714C8.21103 11.2317 7.78892 11.2317 7.52858 10.9714L4.19524 7.63807C3.93489 7.37772 3.93489 6.95561 4.19524 6.69526C4.45559 6.43491 4.8777 6.43491 5.13805 6.69526L7.33331 8.89052V2.49999C7.33331 2.13181 7.63179 1.83333 7.99998 1.83333ZM1.99998 9.83333C2.36817 9.83333 2.66665 10.1318 2.66665 10.5V13.1667C2.66665 13.3435 2.73688 13.513 2.86191 13.6381C2.98693 13.7631 3.1565 13.8333 3.33331 13.8333H12.6666C12.8435 13.8333 13.013 13.7631 13.1381 13.6381C13.2631 13.513 13.3333 13.3435 13.3333 13.1667V10.5C13.3333 10.1318 13.6318 9.83333 14 9.83333C14.3682 9.83333 14.6666 10.1318 14.6666 10.5V13.1667C14.6666 13.6971 14.4559 14.2058 14.0809 14.5809C13.7058 14.9559 13.1971 15.1667 12.6666 15.1667H3.33331C2.80288 15.1667 2.29417 14.9559 1.9191 14.5809C1.54403 14.2058 1.33331 13.6971 1.33331 13.1667V10.5C1.33331 10.1318 1.63179 9.83333 1.99998 9.83333Z" fill="#30384D"/>
</svg>
