<svg width="16" height="17" viewBox="0 0 16 17" fill="none" xmlns="http://www.w3.org/2000/svg">
<path fill-rule="evenodd" clip-rule="evenodd" d="M12 3.08577C11.8017 3.08577 11.6116 3.16453 11.4714 3.30473L3.26864 11.5075L2.91624 12.9171L4.32583 12.5647L12.5286 4.36192C12.598 4.2925 12.6531 4.21009 12.6906 4.1194C12.7282 4.0287 12.7475 3.93149 12.7475 3.83332C12.7475 3.73515 12.7282 3.63794 12.6906 3.54725C12.6531 3.45655 12.598 3.37414 12.5286 3.30473C12.4592 3.23531 12.3768 3.18025 12.2861 3.14268C12.1954 3.10511 12.0982 3.08577 12 3.08577ZM10.5286 2.36192C10.9188 1.97168 11.4481 1.75244 12 1.75244C12.2733 1.75244 12.5438 1.80626 12.7963 1.91084C13.0488 2.01541 13.2782 2.16869 13.4714 2.36192C13.6646 2.55514 13.8179 2.78454 13.9225 3.037C14.0271 3.28947 14.0809 3.56006 14.0809 3.83332C14.0809 4.10659 14.0271 4.37718 13.9225 4.62964C13.8179 4.8821 13.6646 5.1115 13.4714 5.30473L5.13806 13.6381C5.05263 13.7235 4.94557 13.7841 4.82835 13.8134L2.16168 14.4801C1.9345 14.5369 1.69418 14.4703 1.52859 14.3047C1.363 14.1391 1.29644 13.8988 1.35323 13.6716L2.0199 11.005C2.0492 10.8877 2.10982 10.7807 2.19526 10.6953L10.5286 2.36192ZM7.33333 13.8333C7.33333 13.4651 7.6318 13.1667 7.99999 13.1667H14C14.3682 13.1667 14.6667 13.4651 14.6667 13.8333C14.6667 14.2015 14.3682 14.5 14 14.5H7.99999C7.6318 14.5 7.33333 14.2015 7.33333 13.8333Z" fill="white"/>
</svg>
