<svg width="20" height="20" viewBox="0 0 20 20" fill="none" xmlns="http://www.w3.org/2000/svg">
<path fill-rule="evenodd" clip-rule="evenodd" d="M3.23223 1.56556C3.70107 1.09672 4.33696 0.833332 5 0.833332H10.8333C11.0543 0.833332 11.2663 0.921129 11.4226 1.07741L17.2559 6.91074C17.4122 7.06702 17.5 7.27898 17.5 7.5V16.6667C17.5 17.3297 17.2366 17.9656 16.7678 18.4344C16.2989 18.9033 15.663 19.1667 15 19.1667H5C4.33696 19.1667 3.70107 18.9033 3.23223 18.4344C2.76339 17.9656 2.5 17.3297 2.5 16.6667V3.33333C2.5 2.67029 2.76339 2.03441 3.23223 1.56556ZM5 2.5C4.77899 2.5 4.56702 2.5878 4.41074 2.74408C4.25446 2.90036 4.16667 3.11232 4.16667 3.33333V16.6667C4.16667 16.8877 4.25446 17.0996 4.41074 17.2559C4.56702 17.4122 4.77899 17.5 5 17.5H15C15.221 17.5 15.433 17.4122 15.5893 17.2559C15.7455 17.0996 15.8333 16.8877 15.8333 16.6667V8.33333H10.8333C10.3731 8.33333 10 7.96024 10 7.5V2.5H5ZM11.6667 3.67851L14.6548 6.66666H11.6667V3.67851Z" fill="#8793B3"/>
</svg>
