<svg width="20" height="20" viewBox="0 0 20 20" fill="none" xmlns="http://www.w3.org/2000/svg">
<path fill-rule="evenodd" clip-rule="evenodd" d="M0.833313 10C0.833313 9.53976 1.20641 9.16667 1.66665 9.16667H6.66665C6.94527 9.16667 7.20547 9.30592 7.36002 9.53775L8.7793 11.6667H11.2207L12.6399 9.53775C12.7945 9.30592 13.0547 9.16667 13.3333 9.16667H18.3333C18.7935 9.16667 19.1666 9.53976 19.1666 10C19.1666 10.4602 18.7935 10.8333 18.3333 10.8333H13.7793L12.36 12.9622C12.2055 13.1941 11.9453 13.3333 11.6666 13.3333H8.33331C8.05468 13.3333 7.79449 13.1941 7.63994 12.9622L6.22066 10.8333H1.66665C1.20641 10.8333 0.833313 10.4602 0.833313 10Z" fill="#3A6FF7"/>
<path fill-rule="evenodd" clip-rule="evenodd" d="M6.03331 2.5L13.9666 2.5C14.4318 2.50025 14.888 2.63024 15.2833 2.87535C15.6782 3.12025 15.9971 3.47037 16.204 3.8864C16.2042 3.88677 16.2044 3.88713 16.2046 3.8875L19.0785 9.62689C19.1364 9.74271 19.1666 9.87047 19.1666 10V15C19.1666 15.663 18.9033 16.2989 18.4344 16.7678C17.9656 17.2366 17.3297 17.5 16.6666 17.5H3.33331C2.67027 17.5 2.03439 17.2366 1.56555 16.7678C1.09671 16.2989 0.833313 15.663 0.833313 15V10C0.833313 9.87047 0.86351 9.74272 0.921507 9.62689L3.79537 3.8875C3.79557 3.88709 3.79577 3.88669 3.79598 3.88628C4.00296 3.4703 4.32179 3.12022 4.71668 2.87535C5.11195 2.63024 5.56821 2.50025 6.03331 2.5ZM4.54165 4.25833L5.28679 4.63144L2.49998 10.197V15C2.49998 15.221 2.58778 15.433 2.74406 15.5893C2.90034 15.7455 3.1123 15.8333 3.33331 15.8333H16.6666C16.8877 15.8333 17.0996 15.7455 17.2559 15.5893C17.4122 15.433 17.5 15.221 17.5 15V10.197L14.7132 4.63144L14.712 4.62917C14.643 4.49033 14.5367 4.37349 14.4049 4.29178C14.2732 4.21011 14.1213 4.16678 13.9664 4.16667H6.0336C5.87862 4.16678 5.72674 4.21011 5.59502 4.29178C5.46326 4.37349 5.35691 4.49033 5.28792 4.62917L4.54165 4.25833Z" fill="#3A6FF7"/>
</svg>
