<svg width="16" height="16" viewBox="0 0 16 16" fill="none" xmlns="http://www.w3.org/2000/svg">
<g opacity="0.7">
<path fill-rule="evenodd" clip-rule="evenodd" d="M10.52 1.59185C9.98918 1.59185 9.48009 1.80272 9.10474 2.17807L2.97808 8.30474C2.35254 8.93027 2.00111 9.77869 2.00111 10.6633C2.00111 11.548 2.35254 12.3964 2.97808 13.0219C3.60362 13.6475 4.45203 13.9989 5.33667 13.9989C6.22132 13.9989 7.06973 13.6475 7.69527 13.0219L13.8219 6.89526C14.0823 6.63491 14.5044 6.63491 14.7647 6.89526C15.0251 7.15561 15.0251 7.57772 14.7647 7.83807L8.63808 13.9647C7.76249 14.8403 6.57494 15.3322 5.33667 15.3322C4.09841 15.3322 2.91085 14.8403 2.03527 13.9647C1.15968 13.0891 0.667782 11.9016 0.667782 10.6633C0.667782 9.42506 1.15968 8.23751 2.03527 7.36193L8.16193 1.23526C8.78733 0.60986 9.63556 0.258514 10.52 0.258514C11.4045 0.258514 12.2527 0.60986 12.8781 1.23526C13.5035 1.86066 13.8548 2.70888 13.8548 3.59333C13.8548 4.47778 13.5035 5.326 12.8781 5.9514L6.74474 12.0781C6.36953 12.4533 5.86064 12.6641 5.33001 12.6641C4.79937 12.6641 4.29048 12.4533 3.91527 12.0781C3.54006 11.7029 3.32926 11.194 3.32926 10.6633C3.32926 10.1327 3.54006 9.62381 3.91527 9.24859L9.57554 3.59498C9.83605 3.33479 10.2582 3.33503 10.5184 3.59554C10.7785 3.85604 10.7783 4.27815 10.5178 4.53835L4.85808 10.1914C4.73309 10.3165 4.6626 10.4865 4.6626 10.6633C4.6626 10.8403 4.73291 11.0101 4.85808 11.1353C4.98324 11.2604 5.153 11.3307 5.33001 11.3307C5.50701 11.3307 5.67677 11.2604 5.80193 11.1353L11.9353 5.00859C12.3105 4.63327 12.5215 4.12404 12.5215 3.59333C12.5215 3.0625 12.3106 2.55342 11.9353 2.17807C11.5599 1.80272 11.0508 1.59185 10.52 1.59185Z" fill="white"/>
</g>
</svg>
