<svg width="24" height="24" viewBox="0 0 24 24" fill="none" xmlns="http://www.w3.org/2000/svg">
<path fill-rule="evenodd" clip-rule="evenodd" d="M15.5 15.2236C17.4998 15.6786 19.2447 16.8015 20.4912 18.3448C21.1266 19.1315 21.6324 20.0275 21.9765 21C22.3095 20.061 22.5 19.053 22.5 18C22.5 17.8938 22.4982 17.7879 22.4945 17.6826C22.3272 12.86 18.3632 9 13.5 9V6C13.4999 5.72851 13.4261 5.46213 13.2865 5.22927C13.1469 4.9964 12.9468 4.80577 12.7074 4.67769C12.468 4.5496 12.1983 4.48887 11.9272 4.50196C11.656 4.51505 11.3934 4.60146 11.1675 4.752L2.1675 10.752C1.96215 10.8891 1.79381 11.0748 1.67744 11.2926C1.56107 11.5103 1.50026 11.7535 1.50041 12.0004C1.50056 12.2473 1.56166 12.4904 1.67829 12.708C1.79493 12.9257 1.96348 13.1111 2.169 13.248L11.169 19.248C11.3946 19.3988 11.657 19.4855 11.9281 19.4987C12.1992 19.5119 12.4688 19.4512 12.708 19.323C12.9472 19.1946 13.1472 19.0038 13.2867 18.7709C13.4261 18.5379 13.4998 18.2715 13.5 18V15C14.1876 15 14.857 15.0773 15.5 15.2236ZM11.5 17.065V15C11.5 13.8954 12.3954 13 13.5 13C15.8602 13 18.0424 13.744 19.8298 15.0082C18.7077 12.6392 16.2947 11 13.5 11C12.3954 11 11.5 10.1046 11.5 9V6.93404L3.9018 11.9995L11.5 17.065Z" fill="#8793B3"/>
</svg>
