<svg width="25" height="25" viewBox="0 0 25 25" fill="none" xmlns="http://www.w3.org/2000/svg">
<g clip-path="url(#clip0)">
<path fill-rule="evenodd" clip-rule="evenodd" d="M18.601 15.3626C20.3038 15.7937 21.8 16.7413 22.9159 18.0285C23.6047 18.8231 24.1486 19.7472 24.5066 20.759C24.8205 19.8741 25 18.924 25 17.9316C25 17.7076 24.9913 17.4856 24.9742 17.2659C24.6346 12.8933 20.9773 9.4493 16.5177 9.4493V6.62186C16.5176 6.36598 16.448 6.11493 16.3165 5.89546C16.1849 5.67599 15.9963 5.49632 15.7707 5.37561C15.545 5.25489 15.2909 5.19765 15.0353 5.20999C14.7797 5.22232 14.5323 5.30377 14.3194 5.44565L5.83704 11.1005C5.6435 11.2297 5.48485 11.4047 5.37518 11.61C5.2655 11.8152 5.20819 12.0444 5.20833 12.2771C5.20847 12.5098 5.26606 12.7389 5.37598 12.944C5.4859 13.1492 5.64476 13.324 5.83846 13.453L14.3208 19.1078C14.5334 19.25 14.7807 19.3317 15.0362 19.3441C15.2917 19.3566 15.5458 19.2993 15.7712 19.1785C15.9967 19.0575 16.1852 18.8777 16.3166 18.6581C16.448 18.4386 16.5175 18.1875 16.5177 17.9316V15.1042C17.2368 15.1042 17.9347 15.1938 18.601 15.3626ZM14.4344 16.6797V14.0208C14.4344 13.4686 14.8821 13.0208 15.4344 13.0208H16.5177C18.4975 13.0208 20.3469 13.5658 21.9271 14.5125C20.7926 12.7218 18.7936 11.5326 16.5177 11.5326H15.4344C14.8821 11.5326 14.4344 11.0849 14.4344 10.5326V7.87284L7.82921 12.2763L14.4344 16.6797Z" fill="#8793B3"/>
<path fill-rule="evenodd" clip-rule="evenodd" d="M9.20005 6.08072C9.51917 6.5594 9.38982 7.20614 8.91115 7.52526L2.24879 11.9668C2.24868 11.9669 2.2489 11.9668 2.24879 11.9668C2.19801 12.0008 2.15604 12.047 2.12724 12.1009C2.09838 12.1549 2.0833 12.2152 2.08333 12.2765C2.08337 12.3377 2.09853 12.398 2.12745 12.452C2.15638 12.506 2.19819 12.552 2.24917 12.5859L8.91115 17.0272C9.38982 17.3464 9.51917 17.9931 9.20005 18.4718C8.88093 18.9504 8.2342 19.0798 7.75552 18.7607L1.09443 14.3199C0.758208 14.0959 0.482013 13.7921 0.291179 13.436C0.100262 13.0798 0.000243765 12.6819 4.41859e-07 12.2777C-0.000242012 11.8735 0.0992976 11.4755 0.289787 11.1191C0.480276 10.7626 0.755822 10.4586 1.09197 10.2342L7.75552 5.79182C8.2342 5.4727 8.88093 5.60205 9.20005 6.08072Z" fill="#8793B3"/>
</g>
<defs>
<clipPath id="clip0">
<rect width="25" height="25" fill="white"/>
</clipPath>
</defs>
</svg>
