<svg width="24" height="24" viewBox="0 0 24 24" fill="none" xmlns="http://www.w3.org/2000/svg">
<path fill-rule="evenodd" clip-rule="evenodd" d="M10.8 2.4C6.16081 2.4 2.4 6.16081 2.4 10.8C2.4 15.4392 6.16081 19.2 10.8 19.2C15.4392 19.2 19.2 15.4392 19.2 10.8C19.2 6.16081 15.4392 2.4 10.8 2.4ZM0 10.8C0 4.83532 4.83532 0 10.8 0C16.7647 0 21.6 4.83532 21.6 10.8C21.6 16.7647 16.7647 21.6 10.8 21.6C4.83532 21.6 0 16.7647 0 10.8Z" fill="#8793B3"/>
<path fill-rule="evenodd" clip-rule="evenodd" d="M16.7315 16.7315C17.2001 16.2628 17.9599 16.2628 18.4285 16.7315L23.6485 21.9515C24.1172 22.4201 24.1172 23.1799 23.6485 23.6485C23.1799 24.1172 22.4201 24.1172 21.9515 23.6485L16.7315 18.4285C16.2628 17.9599 16.2628 17.2001 16.7315 16.7315Z" fill="#8793B3"/>
</svg>
