<svg width="20" height="20" viewBox="0 0 20 20" fill="none" xmlns="http://www.w3.org/2000/svg">
<path fill-rule="evenodd" clip-rule="evenodd" d="M18.9226 1.07741C19.248 1.40285 19.248 1.93049 18.9226 2.25593L9.75591 11.4226C9.43047 11.748 8.90283 11.748 8.57739 11.4226C8.25196 11.0972 8.25196 10.5695 8.57739 10.2441L17.7441 1.07741C18.0695 0.751977 18.5971 0.751977 18.9226 1.07741Z" fill="#8793B3"/>
<path fill-rule="evenodd" clip-rule="evenodd" d="M18.9226 1.07741C19.1489 1.30378 19.2256 1.63981 19.1199 1.94196L13.2865 18.6086C13.1737 18.9311 12.8754 19.152 12.534 19.166C12.1926 19.1799 11.8772 18.984 11.7385 18.6718L8.53531 11.4647L1.3282 8.26151C1.01597 8.12274 0.820082 7.80743 0.83401 7.46603C0.847938 7.12463 1.06886 6.82633 1.39136 6.71345L18.058 0.880121C18.3602 0.774366 18.6962 0.851049 18.9226 1.07741ZM3.92588 7.59217L9.5051 10.0718C9.69363 10.1556 9.84437 10.3064 9.92816 10.4949L12.4078 16.0741L16.975 3.02498L3.92588 7.59217Z" fill="#8793B3"/>
</svg>
