<svg width="16" height="16" viewBox="0 0 16 16" fill="none" xmlns="http://www.w3.org/2000/svg">
<path fill-rule="evenodd" clip-rule="evenodd" d="M3.33333 8.00001C3.33333 7.63182 3.63181 7.33334 4 7.33334H12C12.3682 7.33334 12.6667 7.63182 12.6667 8.00001C12.6667 8.3682 12.3682 8.66668 12 8.66668H4C3.63181 8.66668 3.33333 8.3682 3.33333 8.00001Z" fill="#30384D"/>
<path fill-rule="evenodd" clip-rule="evenodd" d="M1.33333 4.00001C1.33333 3.63182 1.63181 3.33334 2 3.33334H14C14.3682 3.33334 14.6667 3.63182 14.6667 4.00001C14.6667 4.3682 14.3682 4.66668 14 4.66668H2C1.63181 4.66668 1.33333 4.3682 1.33333 4.00001Z" fill="#30384D"/>
<path fill-rule="evenodd" clip-rule="evenodd" d="M5.33333 12C5.33333 11.6318 5.63181 11.3333 6 11.3333H10C10.3682 11.3333 10.6667 11.6318 10.6667 12C10.6667 12.3682 10.3682 12.6667 10 12.6667H6C5.63181 12.6667 5.33333 12.3682 5.33333 12Z" fill="#30384D"/>
</svg>
