<svg width="20" height="20" viewBox="0 0 20 20" fill="none" xmlns="http://www.w3.org/2000/svg">
<path fill-rule="evenodd" clip-rule="evenodd" d="M1.66669 5C1.66669 4.53976 2.03978 4.16667 2.50002 4.16667H17.5C17.9603 4.16667 18.3334 4.53976 18.3334 5C18.3334 5.46024 17.9603 5.83333 17.5 5.83333H2.50002C2.03978 5.83333 1.66669 5.46024 1.66669 5Z" fill="#8793B3"/>
<path fill-rule="evenodd" clip-rule="evenodd" d="M8.33335 2.5C8.11234 2.5 7.90038 2.5878 7.7441 2.74408C7.58782 2.90036 7.50002 3.11232 7.50002 3.33333V4.16667H12.5V3.33333C12.5 3.11232 12.4122 2.90036 12.2559 2.74408C12.0997 2.5878 11.8877 2.5 11.6667 2.5H8.33335ZM14.1667 4.16667V3.33333C14.1667 2.67029 13.9033 2.03441 13.4345 1.56557C12.9656 1.09673 12.3297 0.833333 11.6667 0.833333H8.33335C7.67031 0.833333 7.03443 1.09673 6.56559 1.56557C6.09675 2.03441 5.83335 2.67029 5.83335 3.33333V4.16667H4.16669C3.70645 4.16667 3.33335 4.53976 3.33335 5V16.6667C3.33335 17.3297 3.59675 17.9656 4.06559 18.4344C4.53443 18.9033 5.17031 19.1667 5.83335 19.1667H14.1667C14.8297 19.1667 15.4656 18.9033 15.9345 18.4344C16.4033 17.9656 16.6667 17.3297 16.6667 16.6667V5C16.6667 4.53976 16.2936 4.16667 15.8334 4.16667H14.1667ZM5.00002 5.83333V16.6667C5.00002 16.8877 5.08782 17.0996 5.2441 17.2559C5.40038 17.4122 5.61234 17.5 5.83335 17.5H14.1667C14.3877 17.5 14.5997 17.4122 14.7559 17.2559C14.9122 17.0996 15 16.8877 15 16.6667V5.83333H5.00002Z" fill="#8793B3"/>
<path fill-rule="evenodd" clip-rule="evenodd" d="M8.33335 8.33333C8.79359 8.33333 9.16669 8.70643 9.16669 9.16667V14.1667C9.16669 14.6269 8.79359 15 8.33335 15C7.87312 15 7.50002 14.6269 7.50002 14.1667V9.16667C7.50002 8.70643 7.87312 8.33333 8.33335 8.33333Z" fill="#8793B3"/>
<path fill-rule="evenodd" clip-rule="evenodd" d="M11.6667 8.33333C12.1269 8.33333 12.5 8.70643 12.5 9.16667V14.1667C12.5 14.6269 12.1269 15 11.6667 15C11.2065 15 10.8334 14.6269 10.8334 14.1667V9.16667C10.8334 8.70643 11.2065 8.33333 11.6667 8.33333Z" fill="#8793B3"/>
</svg>
